REM MD5 fc2cb76893628a4256f0e496a809ff0c
FILE "Tekken 3 (Japan) (Rev 1).bin" BINARY
  TRACK 01 MODE2/2352
    INDEX 01 00:00:00
  TRACK 02 AUDIO
    INDEX 00 60:10:45
    INDEX 01 60:12:45
  TRACK 03 AUDIO
    INDEX 00 62:47:48
    INDEX 01 62:49:48
REM LEADOUT 65:26:46
